<?xml version="1.0" standalone="no"?>
<!DOCTYPE svg PUBLIC "-//W3C//DTD SVG 20010904//EN"
 "http://www.w3.org/TR/2001/REC-SVG-20010904/DTD/svg10.dtd">
<svg version="1.0" xmlns="http://www.w3.org/2000/svg"
 width="284.000000pt" height="177.000000pt" viewBox="0 0 284.000000 177.000000"
 preserveAspectRatio="xMidYMid meet">

<g transform="translate(0.000000,177.000000) scale(0.100000,-0.100000)"
fill="#000000" stroke="none">
<path d="M1473 1582 c-21 -13 -3 -50 28 -57 16 -4 33 -14 38 -23 8 -14 12 -15
22 -4 11 10 4 20 -31 52 -24 22 -44 40 -45 40 0 0 -5 -4 -12 -8z"/>
<path d="M750 1551 c0 -18 18 -21 30 -6 10 13 9 15 -9 15 -11 0 -21 -4 -21 -9z"/>
<path d="M784 1529 c-10 -17 13 -36 27 -22 12 12 4 33 -11 33 -5 0 -12 -5 -16
-11z"/>
<path d="M902 1504 c10 -10 20 -15 24 -12 3 4 -5 12 -18 18 -22 12 -22 12 -6
-6z"/>
<path d="M860 1465 c13 -14 30 -25 38 -25 24 0 8 21 -28 36 l-34 15 24 -26z"/>
<path d="M1468 1443 c17 -2 32 -8 32 -13 0 -4 11 -7 25 -6 47 2 19 20 -36 22
-30 1 -39 0 -21 -3z"/>
<path d="M851 1414 c27 -29 29 -29 22 -5 -3 11 -14 22 -25 24 -19 5 -19 4 3
-19z"/>
<path d="M1404 1422 c-6 -4 -19 -21 -28 -39 l-16 -32 -254 -3 c-254 -3 -255
-3 -280 -27 -14 -14 -26 -35 -26 -48 l0 -24 294 2 c161 1 299 -1 305 -5 6 -4
9 -12 6 -17 -4 -5 -1 -9 4 -9 6 0 11 7 11 15 0 13 42 15 315 15 189 0 315 4
315 9 0 27 -23 62 -49 76 -25 12 -75 15 -291 15 -280 0 -277 -1 -250 50 9 16
8 18 -6 13 -12 -4 -15 -3 -10 5 8 13 -22 16 -40 4z m36 -22 c18 -12 2 -12 -25
0 -13 6 -15 9 -5 9 8 0 22 -4 30 -9z m-90 -110 c0 -5 -12 -10 -27 -10 -22 0
-25 2 -13 10 20 13 40 13 40 0z"/>
<path d="M2594 1305 c-33 -52 -54 -63 -54 -29 0 32 -24 6 -40 -42 -14 -46 -17
-49 -48 -46 -30 2 -32 0 -32 -29 0 -26 -3 -30 -17 -23 -37 16 -1180 26 -1711
14 -219 -5 -232 -5 -238 13 -4 12 -11 16 -22 12 -10 -4 -21 -7 -26 -8 -12 -3
-36 43 -36 69 0 12 -7 27 -16 34 -13 11 -16 10 -21 -8 -8 -34 -28 -26 -48 19
-19 41 -48 69 -72 69 -20 0 -16 -22 12 -61 26 -40 23 -59 -6 -33 -10 9 -25 14
-34 11 -28 -12 -15 -34 30 -52 49 -18 54 -36 14 -45 -35 -8 -31 -35 6 -36 49
-2 55 -4 55 -14 0 -5 -6 -10 -12 -10 -7 0 -19 -4 -27 -9 -11 -7 -9 -13 8 -30
11 -11 21 -16 21 -10 0 15 42 1 62 -22 17 -20 38 -25 38 -9 0 16 -23 60 -32
60 -4 0 -7 3 -6 8 2 4 -6 21 -16 38 -17 28 -22 31 -48 24 -17 -5 -26 -5 -23 1
4 5 13 9 21 9 18 0 18 10 -2 38 -9 13 -11 22 -4 22 8 0 8 6 0 20 -7 13 -7 20
0 20 5 0 13 -18 16 -40 4 -21 15 -47 25 -56 17 -15 18 -14 28 17 8 29 9 30 10
9 0 -14 -3 -31 -8 -39 -5 -8 1 -30 18 -60 18 -32 27 -41 29 -28 3 16 22 17
260 15 l257 -3 5 -64 c3 -38 10 -66 18 -69 9 -3 12 -49 12 -181 l0 -177 -93
-3 c-50 -1 -93 -6 -95 -10 -1 -5 -15 -7 -30 -5 -26 4 -26 3 -2 -4 13 -4 55 -4
93 1 63 8 70 7 88 -12 26 -28 26 -101 0 -125 -22 -20 -216 -40 -329 -34 -34 2
-64 1 -65 -2 -2 -3 -2 0 -1 7 2 7 -1 15 -6 18 -6 4 -10 25 -10 49 0 63 28 86
108 86 33 0 64 5 67 10 7 12 -35 13 -124 4 l-61 -7 0 -68 0 -69 -46 0 c-37 0
-47 -4 -51 -20 -3 -11 -9 -20 -14 -20 -14 0 -10 -30 5 -46 11 -10 42 -14 121
-14 l106 0 10 30 c10 28 15 30 60 30 48 0 49 -1 49 -30 l0 -30 243 2 242 3 3
48 3 47 -35 0 -36 0 0 73 c-2 309 0 430 5 436 8 8 502 13 532 6 22 -5 23 -9
25 -177 l3 -173 22 24 c12 13 26 20 32 16 8 -4 11 41 11 148 0 128 3 156 15
161 8 3 22 3 30 0 12 -5 15 -33 15 -163 0 -145 1 -157 20 -169 14 -8 19 -9 18
-1 -5 22 22 20 31 -2 l8 -23 12 22 c11 20 19 22 111 22 82 0 100 3 100 15 0
12 -17 15 -90 15 l-90 0 0 111 c0 61 4 118 10 128 5 10 23 24 39 31 37 15 79
-2 98 -40 12 -23 13 -23 13 -4 0 42 -66 73 -116 54 -47 -18 -53 -36 -54 -160
0 -117 -6 -145 -27 -132 -8 5 -13 53 -14 150 -1 119 2 146 15 161 11 12 16 36
16 74 l0 57 243 0 242 -1 25 -40 c23 -37 25 -38 33 -17 5 14 2 35 -8 60 -20
52 -18 63 4 14 l17 -39 26 44 c19 33 26 56 24 85 -2 21 -1 27 1 12 2 -16 8
-28 13 -28 14 0 40 42 40 65 0 11 4 26 9 34 6 10 8 2 6 -24 -2 -21 -9 -43 -14
-48 -8 -8 -5 -15 11 -24 23 -12 22 -12 -6 -10 -20 1 -34 -5 -49 -25 -23 -31
-19 -40 18 -40 21 0 26 -4 22 -19 -3 -11 -2 -19 3 -19 12 0 20 44 10 54 -19
19 -9 29 24 23 24 -4 39 -1 47 9 14 17 14 17 -25 29 -40 13 -36 27 13 43 29
10 41 20 41 33 0 22 -29 26 -48 7 -22 -22 -25 2 -4 32 28 37 28 60 2 60 -14 0
-32 -18 -56 -55z m-1406 -183 c7 -5 12 -22 10 -38 -1 -16 1 -35 6 -42 14 -23
-13 -52 -49 -52 l-35 0 0 70 c0 70 0 70 28 70 15 0 33 -4 40 -8z m119 -62 c17
-57 18 -70 7 -70 -8 0 -17 7 -20 15 -4 8 -12 15 -20 15 -8 0 -14 -7 -14 -15 0
-8 -7 -15 -15 -15 -19 0 -19 -2 2 76 9 35 22 64 29 64 6 0 20 -31 31 -70z m82
39 l19 -32 4 28 c2 16 9 30 16 33 9 3 12 -15 12 -67 0 -80 -15 -94 -43 -38
l-16 32 0 -32 c-1 -22 -6 -33 -16 -33 -12 0 -15 14 -15 70 0 77 10 87 39 39z
m112 -1 l1 -33 14 33 c8 17 21 32 29 32 19 0 19 -4 0 -40 -14 -27 -14 -33 0
-60 18 -35 19 -40 2 -40 -7 0 -20 12 -29 28 l-17 27 -1 -27 c0 -18 -5 -28 -15
-28 -12 0 -15 14 -15 70 0 56 3 70 15 70 10 0 15 -11 16 -32z m-1178 -15 c-7
-2 -21 -2 -30 0 -10 3 -4 5 12 5 17 0 24 -2 18 -5z m745 -396 l2 -257 -30 0
-30 0 0 254 c0 262 1 268 40 263 13 -2 15 -40 18 -260z m-558 -137 c0 -5 -4
-10 -10 -10 -5 0 -10 5 -10 10 0 6 5 10 10 10 6 0 10 -4 10 -10z"/>
<path d="M1150 1085 c0 -8 5 -15 10 -15 6 0 10 7 10 15 0 8 -4 15 -10 15 -5 0
-10 -7 -10 -15z"/>
<path d="M1150 1025 c0 -8 4 -15 9 -15 5 0 11 7 15 15 3 9 0 15 -9 15 -8 0
-15 -7 -15 -15z"/>
<path d="M1271 1054 c0 -11 3 -14 6 -6 3 7 2 16 -1 19 -3 4 -6 -2 -5 -13z"/>
<path d="M2506 1078 c-8 -33 -7 -48 3 -48 5 0 11 10 13 23 2 14 9 21 21 21 9
-1 17 4 17 12 0 24 -47 17 -54 -8z"/>
<path d="M2551 1034 c0 -11 3 -14 6 -6 3 7 2 16 -1 19 -3 4 -6 -2 -5 -13z"/>
<path d="M2500 1010 c0 -5 7 -10 15 -10 8 0 15 5 15 10 0 6 -7 10 -15 10 -8 0
-15 -4 -15 -10z"/>
<path d="M350 1001 c0 -6 5 -13 10 -16 6 -3 10 1 10 9 0 9 -4 16 -10 16 -5 0
-10 -4 -10 -9z"/>
<path d="M2430 939 c0 -11 4 -18 10 -14 5 3 7 12 3 20 -7 21 -13 19 -13 -6z"/>
<path d="M2495 950 c-3 -5 -2 -10 4 -10 5 0 13 5 16 10 3 6 2 10 -4 10 -5 0
-13 -4 -16 -10z"/>
<path d="M729 921 c-29 -29 -29 -31 -29 -144 0 -93 -3 -116 -15 -121 -16 -6
-20 -33 -7 -54 10 -16 42 -5 42 14 0 11 19 14 83 14 l83 0 -4 108 c-4 145 -8
168 -39 192 -37 29 -79 26 -114 -9z m116 -12 c17 -17 20 -35 23 -134 l3 -115
-81 0 -80 0 0 113 c1 119 7 139 51 156 30 12 58 5 84 -20z"/>
<path d="M2240 937 c-39 -20 -48 -52 -52 -185 l-3 -122 95 0 96 0 -4 108 c-4
151 -9 167 -11 35 l-1 -113 -80 0 -80 0 0 111 c0 109 0 111 29 140 36 36 60
37 100 3 33 -27 44 -19 13 9 -26 23 -72 30 -102 14z"/>
<path d="M466 918 c-10 -16 -15 -62 -18 -156 l-3 -133 95 3 c79 3 94 6 90 18
-3 8 -6 69 -8 135 -3 128 -14 156 -56 154 -15 0 -16 -2 -6 -6 45 -17 50 -31
50 -155 l0 -118 -75 0 -75 0 0 111 c0 116 8 145 43 159 l22 9 -22 0 c-13 1
-29 -9 -37 -21z"/>
<path d="M1342 905 c-23 -14 -49 -39 -57 -55 -19 -36 -29 -102 -21 -135 10
-41 26 -19 26 36 0 28 7 63 15 79 17 32 72 70 103 70 20 0 20 -4 19 -237 l-2
-238 -62 1 -63 1 0 -33 c0 -18 -3 -40 -6 -48 -6 -15 21 -16 281 -14 l288 3 12
48 c13 50 6 67 -15 42 -15 -18 -92 -20 -123 -3 -12 6 -45 10 -74 9 l-53 -2 0
180 c0 206 -9 242 -68 288 -54 40 -141 44 -200 8z m195 -37 c37 -30 42 -63 43
-254 l2 -189 -64 0 -63 0 -3 243 -2 242 37 -15 c20 -8 43 -21 50 -27z"/>
<path d="M348 913 c7 -3 16 -2 19 1 4 3 -2 6 -13 5 -11 0 -14 -3 -6 -6z"/>
<path d="M2498 913 c7 -3 16 -2 19 1 4 3 -2 6 -13 5 -11 0 -14 -3 -6 -6z"/>
<path d="M2550 906 c0 -9 30 -14 35 -6 4 6 -3 10 -14 10 -12 0 -21 -2 -21 -4z"/>
<path d="M2437 894 c-10 -10 -9 -184 1 -184 4 0 13 20 20 45 7 25 16 45 22 45
5 0 10 -4 10 -10 0 -17 60 -12 67 6 5 14 8 15 17 3 21 -27 42 -20 65 21 12 22
26 40 32 40 18 0 8 21 -16 32 -20 9 -33 8 -64 -7 -39 -17 -74 -15 -132 9 -8 4
-18 3 -22 0z"/>
<path d="M212 874 c-24 -17 -29 -34 -9 -34 7 0 21 -14 31 -30 16 -28 21 -30
64 -28 39 3 47 0 50 -16 2 -10 -2 -22 -9 -27 -17 -10 -3 -26 26 -31 17 -3 20
3 23 47 1 28 0 60 -3 72 -5 20 -9 21 -31 12 -33 -12 -71 -2 -55 14 8 8 2 14
-20 24 -39 16 -40 16 -67 -3z"/>
<path d="M338 873 c6 -2 18 -2 25 0 6 3 1 5 -13 5 -14 0 -19 -2 -12 -5z"/>
<path d="M2100 779 c0 -5 5 -7 10 -4 6 3 10 8 10 11 0 2 -4 4 -10 4 -5 0 -10
-5 -10 -11z"/>
<path d="M1183 724 c-5 -13 -6 -71 -2 -109 1 -11 0 -27 -2 -35 -3 -11 5 -16
29 -18 l32 -3 -17 35 c-13 28 -14 41 -5 60 6 14 7 28 1 35 -5 6 -6 9 -3 6 7
-5 33 24 34 37 0 13 -62 5 -67 -8z"/>
<path d="M1260 666 c0 -9 5 -16 10 -16 6 0 10 4 10 9 0 6 -4 13 -10 16 -5 3
-10 -1 -10 -9z"/>
<path d="M1285 601 c-3 -6 3 -14 12 -20 11 -6 13 -11 5 -11 -7 0 -10 -5 -6
-11 4 -7 9 -8 17 0 7 7 6 15 -2 25 -9 11 -9 15 1 19 9 4 7 6 -4 6 -9 1 -19 -3
-23 -8z"/>
<path d="M730 542 c19 -9 36 -25 38 -35 6 -32 -8 -68 -31 -77 -16 -6 -18 -9
-5 -9 24 -1 48 37 48 76 0 35 -29 63 -65 63 -15 0 -11 -5 15 -18z"/>
<path d="M823 543 c9 -2 25 -2 35 0 9 3 1 5 -18 5 -19 0 -27 -2 -17 -5z"/>
<path d="M546 528 c7 -11 42 -10 49 2 4 6 -5 10 -24 8 -16 -1 -27 -6 -25 -10z"/>
<path d="M644 505 c-9 -37 0 -40 13 -5 6 17 7 30 2 30 -5 0 -11 -11 -15 -25z"/>
<path d="M706 522 c-3 -4 3 -23 12 -42 13 -27 18 -31 20 -16 2 10 -2 22 -10
27 -10 6 -10 9 0 9 6 0 12 4 12 9 0 12 -28 22 -34 13z"/>
<path d="M824 505 c-4 -9 -2 -21 3 -26 14 -14 45 1 41 20 -4 22 -37 26 -44 6z"/>
<path d="M552 483 c5 -26 38 -29 38 -4 0 15 -6 21 -21 21 -14 0 -19 -5 -17
-17z"/>
<path d="M680 465 c0 -2 10 -10 23 -16 20 -11 21 -11 8 4 -13 16 -31 23 -31
12z"/>
<path d="M650 451 c0 -6 4 -13 10 -16 6 -3 7 1 4 9 -7 18 -14 21 -14 7z"/>
<path d="M833 443 c9 -2 23 -2 30 0 6 3 -1 5 -18 5 -16 0 -22 -2 -12 -5z"/>
<path d="M558 423 c7 -3 16 -2 19 1 4 3 -2 6 -13 5 -11 0 -14 -3 -6 -6z"/>
<path d="M1244 383 c-8 -41 -8 -53 2 -53 15 0 21 27 14 70 -5 35 -5 35 -16
-17z"/>
<path d="M1960 425 c0 -3 5 -26 11 -51 l11 -44 259 0 c161 0 260 4 264 10 3 6
-1 10 -9 10 -21 0 -20 30 1 45 9 7 13 16 10 22 -7 11 -547 19 -547 8z"/>
<path d="M657 356 c-4 -10 -5 -21 -2 -24 9 -9 17 6 13 25 -3 17 -4 17 -11 -1z"/>
<path d="M1920 346 c0 -9 5 -16 10 -16 6 0 10 4 10 9 0 6 -4 13 -10 16 -5 3
-10 -1 -10 -9z"/>
<path d="M532 188 c2 -6 10 -14 16 -16 7 -2 10 2 6 12 -7 18 -28 22 -22 4z"/>
<path d="M2037 181 c-3 -14 -1 -18 9 -14 8 3 14 11 14 19 0 21 -17 17 -23 -5z"/>
<path d="M695 170 c3 -5 14 -10 23 -10 15 0 15 2 2 10 -20 13 -33 13 -25 0z"/>
<path d="M1868 163 c6 -2 18 -2 25 0 6 3 1 5 -13 5 -14 0 -19 -2 -12 -5z"/>
</g>
</svg>
