<?xml version="1.0" standalone="no"?>
<!DOCTYPE svg PUBLIC "-//W3C//DTD SVG 20010904//EN"
 "http://www.w3.org/TR/2001/REC-SVG-20010904/DTD/svg10.dtd">
<svg version="1.0" xmlns="http://www.w3.org/2000/svg"
 width="947.000000pt" height="628.000000pt" viewBox="0 0 947.000000 628.000000"
 preserveAspectRatio="xMidYMid meet">

<g transform="translate(0.000000,628.000000) scale(0.100000,-0.100000)"
fill="#000000" stroke="none">
<path d="M2052 4685 c-152 -42 -277 -176 -311 -333 -6 -29 -11 -127 -11 -217
0 -153 -1 -165 -18 -165 -10 0 -28 -9 -40 -20 -21 -20 -22 -28 -22 -224 0
-199 0 -203 23 -224 13 -12 31 -22 40 -22 14 0 17 -10 17 -49 l0 -50 -35 15
c-19 7 -43 14 -53 14 -10 0 -31 14 -47 30 -59 62 -118 58 -204 -14 -64 -54
-96 -68 -149 -65 -38 3 -47 0 -50 -14 -2 -10 2 -24 8 -32 9 -11 5 -14 -21 -17
-44 -4 -46 -20 -7 -63 26 -28 44 -37 85 -44 62 -9 109 4 164 48 34 28 78 51
97 51 4 0 13 -14 19 -31 10 -27 16 -30 38 -25 23 6 25 4 25 -28 0 -34 0 -34
29 -23 23 8 33 8 45 -2 20 -17 21 -55 1 -71 -10 -8 -15 -30 -15 -64 l1 -51 19
25 c54 71 49 76 49 -60 l0 -125 -107 -42 c-59 -23 -115 -45 -124 -48 -13 -5
-17 0 -20 27 -3 33 -3 33 -44 -37 -78 -131 -91 -176 -105 -374 -5 -74 -11
-136 -12 -138 -2 -1 -74 3 -159 10 l-157 13 -16 -60 c-10 -33 -19 -65 -22 -72
-6 -16 124 -58 249 -80 51 -9 96 -19 99 -23 4 -3 -2 -49 -13 -101 -18 -89 -25
-104 -124 -265 -58 -93 -133 -226 -167 -294 l-62 -123 1 -112 c0 -61 8 -185
17 -275 9 -91 17 -243 17 -338 0 -147 2 -173 15 -173 24 0 18 -33 -12 -68 -17
-20 -52 -41 -88 -55 -56 -22 -60 -25 -63 -59 -3 -34 -2 -35 35 -41 80 -14 104
-9 158 33 50 38 120 70 155 70 14 0 18 12 23 72 3 40 11 118 18 173 7 55 12
197 13 315 1 178 -2 226 -17 281 l-18 66 53 77 53 78 6 -149 c5 -108 13 -178
32 -258 35 -147 46 -226 58 -434 6 -115 14 -178 21 -182 14 -9 -11 -20 -83
-39 -87 -23 -129 -56 -129 -100 0 -6 84 -10 211 -10 l212 0 -6 55 c-4 42 -2
55 8 55 19 0 23 27 30 205 7 158 -5 356 -26 440 -5 22 -19 61 -31 88 -26 57
-24 70 60 417 l57 234 5 -564 c5 -519 7 -569 24 -615 58 -153 181 -262 334
-294 36 -8 299 -11 838 -11 873 0 869 0 981 66 127 75 198 190 217 352 l11 95
240 63 c132 35 275 71 318 80 66 14 77 20 78 38 0 12 22 -56 47 -150 l47 -171
50 17 c124 43 230 113 262 173 13 26 14 38 3 84 -7 29 -16 53 -18 53 -3 0 -18
-15 -33 -32 l-27 -33 -32 32 c-21 22 -43 33 -68 35 l-36 3 -69 262 -70 262 37
34 c27 26 36 42 36 67 0 22 10 44 30 67 21 24 30 44 31 71 0 32 6 42 47 73 59
44 335 239 424 299 78 53 68 8 98 404 20 256 20 259 1 280 -10 12 -85 116
-166 231 -81 116 -152 215 -159 222 -8 9 -50 -16 -176 -106 -211 -150 -280
-194 -280 -178 0 6 14 121 32 254 17 134 30 244 27 247 -2 2 -146 23 -319 45
-410 54 -370 45 -370 92 0 32 3 39 20 39 10 0 28 10 40 22 19 20 20 34 20 225
0 190 -1 204 -20 223 -11 11 -29 20 -39 20 -19 0 -20 10 -23 203 l-3 203 -37
75 c-46 93 -122 168 -215 212 l-68 32 -845 2 c-710 2 -853 0 -898 -12z m1775
-114 c65 -29 134 -101 159 -166 18 -49 19 -102 19 -2020 l0 -1970 -24 -49
c-31 -63 -84 -116 -147 -147 l-49 -24 -860 0 -860 0 -54 30 c-54 30 -103 82
-137 145 -18 34 -19 101 -22 2013 -2 1956 -2 1979 18 2024 40 91 122 161 214
184 17 4 405 6 861 6 l830 -2 52 -24z m478 -1371 c81 -11 152 -20 156 -20 5 0
9 -16 9 -35 0 -40 28 -101 58 -128 11 -11 38 -25 59 -32 21 -7 37 -19 36 -27
-1 -7 -34 -264 -75 -570 l-73 -557 -60 -20 c-33 -11 -111 -34 -172 -50 l-113
-29 0 44 c0 39 2 44 23 44 92 0 210 82 253 175 26 55 32 151 14 217 -25 90
-128 179 -231 199 l-59 12 0 398 c0 331 2 399 14 399 7 0 80 -9 161 -20z m695
-430 c0 -17 74 -59 115 -65 26 -4 56 -1 85 10 l45 16 21 -27 c12 -14 49 -66
83 -114 l61 -88 -45 -50 c-55 -61 -59 -79 -7 -31 l37 34 -39 -42 c-21 -23 -44
-41 -50 -40 -6 1 -10 -4 -8 -11 1 -8 -1 -11 -6 -8 -5 3 -24 -13 -41 -34 -37
-46 -38 -41 24 -175 l44 -94 -37 -29 c-113 -87 -283 -202 -292 -197 -5 3 -10
12 -10 19 0 7 -9 21 -19 30 -19 17 -19 19 10 79 82 173 -9 361 -202 420 -14 5
-14 17 2 132 9 70 22 132 27 137 18 18 187 137 195 138 4 0 7 -4 7 -10z m-283
-252 c-3 -7 -5 -2 -5 12 0 14 2 19 5 13 2 -7 2 -19 0 -25z m-10 -80 c-3 -7 -5
-2 -5 12 0 14 2 19 5 13 2 -7 2 -19 0 -25z m-257 -830 c37 -141 37 -134 -4
-118 -37 14 -120 13 -170 -2 -25 -8 -61 -32 -93 -63 l-53 -51 0 100 0 101 138
37 c75 20 145 37 154 37 12 1 21 -12 28 -41z m-209 -603 c45 -25 65 -30 124
-30 59 0 79 5 123 30 30 16 62 40 73 54 11 13 22 22 25 19 10 -10 46 -159 40
-165 -6 -6 -472 -133 -488 -133 -5 0 -8 73 -8 162 l0 163 29 -36 c16 -19 53
-48 82 -64z m516 -127 c-3 -8 -6 -5 -6 6 -1 11 2 17 5 13 3 -3 4 -12 1 -19z
m10 -40 c-3 -8 -6 -5 -6 6 -1 11 2 17 5 13 3 -3 4 -12 1 -19z"/>
<path d="M2357 2212 c-35 -39 -10 -92 43 -92 27 0 28 1 17 30 -9 23 -9 35 0
49 7 10 9 22 6 25 -13 12 -50 5 -66 -12z"/>
<path d="M2102 1653 c-30 -12 -42 -61 -42 -173 0 -104 1 -112 25 -135 24 -25
25 -25 228 -25 l204 0 24 26 c23 24 24 33 24 144 0 112 -1 120 -24 144 l-24
26 -201 -1 c-111 0 -207 -3 -214 -6z m401 -201 c19 -17 22 -44 7 -72 -8 -15
-22 -19 -80 -19 -58 0 -71 3 -80 19 -14 27 -12 51 6 71 21 23 121 24 147 1z"/>
<path d="M2357 692 c-35 -38 -8 -92 45 -92 25 0 26 1 15 30 -9 23 -9 35 0 49
7 10 9 22 6 25 -13 12 -50 5 -66 -12z"/>
<path d="M6148 4681 c-144 -47 -249 -155 -292 -300 -12 -41 -16 -99 -16 -233
0 -171 -1 -178 -20 -178 -11 0 -29 -9 -40 -20 -19 -19 -20 -33 -20 -223 0
-191 1 -205 20 -225 12 -12 30 -22 40 -22 11 0 20 -7 20 -15 0 -9 -9 -15 -24
-15 -50 0 -56 -26 -56 -245 1 -215 3 -228 53 -240 l27 -7 0 -1227 c0 -1337 -2
-1284 56 -1392 58 -106 183 -197 303 -219 73 -14 1599 -14 1672 0 81 15 177
67 238 128 l54 53 -6 65 -5 64 78 0 78 0 6 31 c3 17 6 123 6 234 0 180 3 215
24 307 13 56 36 164 51 238 14 74 29 143 33 153 5 13 34 -27 116 -165 l108
-183 -16 -85 c-17 -87 -39 -285 -50 -447 l-7 -92 33 -6 c19 -4 56 -7 83 -8
l50 -2 57 335 c54 315 57 339 47 405 -16 102 -80 319 -150 506 -61 163 -79
249 -53 249 7 0 11 6 8 13 -3 9 17 27 53 50 32 19 91 66 131 102 84 77 86 88
48 198 -51 142 -185 328 -275 380 -30 17 -31 17 -32 0 0 -15 -2 -15 -9 3 -5
12 -20 24 -35 28 -50 13 -21 31 58 36 92 6 117 24 124 92 5 41 3 47 -33 81
l-38 35 12 52 c44 191 -36 320 -201 320 -21 0 -58 5 -83 11 -43 11 -72 7 -131
-17 -10 -4 -13 18 -13 95 0 91 2 101 18 101 10 0 28 10 40 23 21 22 22 32 22
223 0 188 -1 202 -20 222 -12 12 -30 22 -40 22 -19 0 -20 8 -20 173 0 193 -11
257 -60 342 -41 71 -118 140 -198 178 l-67 32 -850 2 c-799 2 -853 1 -907 -16z
m1749 -96 c61 -18 129 -68 167 -124 54 -78 56 -101 56 -776 0 -341 -4 -625 -8
-631 -4 -7 -29 -22 -56 -34 -74 -35 -107 -111 -75 -172 12 -22 82 -57 117 -58
20 0 22 -5 22 -55 0 -35 4 -54 11 -53 6 2 20 -22 31 -52 27 -76 21 -176 -15
-247 -26 -51 -35 -93 -19 -93 4 0 16 6 27 14 11 7 63 32 116 56 64 28 110 55
135 81 21 21 46 39 55 39 10 0 21 5 24 10 3 6 15 10 26 10 11 0 35 11 53 25
34 26 60 30 115 19 42 -9 39 -26 -14 -70 -25 -20 -45 -41 -45 -48 0 -6 36 -62
80 -125 47 -68 76 -119 71 -125 -122 -165 -133 -176 -150 -159 -14 15 -16 42
-14 210 2 150 0 192 -10 186 -7 -4 -29 -19 -50 -34 -21 -16 -60 -31 -85 -35
-37 -6 -57 -17 -102 -59 -79 -74 -139 -120 -190 -147 l-45 -23 -6 -75 c-4 -41
-14 -97 -23 -124 -19 -59 -20 -66 -3 -66 14 0 13 24 18 -880 l3 -555 -26 -50
c-32 -60 -87 -115 -148 -147 l-45 -23 -860 0 -860 0 -50 27 c-66 35 -108 80
-142 153 l-28 60 -3 1938 c-3 1925 -3 1939 17 2005 22 74 58 124 121 167 78
54 70 54 946 54 691 1 818 -1 861 -14z m687 -1517 c3 -13 6 -38 6 -56 0 -29
-2 -31 -20 -20 -10 7 -23 9 -27 5 -4 -5 -1 -12 7 -17 10 -7 11 -10 3 -10 -7 0
-13 -9 -13 -20 0 -25 25 -26 39 -2 15 26 13 2 -5 -51 -19 -56 -84 -125 -124
-134 -28 -5 -30 -9 -30 -50 0 -25 -3 -43 -8 -41 -4 2 -35 18 -69 37 -53 30
-62 40 -68 70 -11 61 -39 131 -52 131 -23 0 -53 39 -53 70 0 37 30 56 61 39
13 -6 52 -10 94 -7 57 3 69 1 56 -9 -9 -6 -13 -15 -8 -19 4 -4 13 -2 19 4 7 7
21 12 31 12 15 0 17 3 8 14 -9 11 -5 15 21 20 18 3 51 17 73 30 51 30 51 31
59 4z m3 -470 c-3 -8 -6 -5 -6 6 -1 11 2 17 5 13 3 -3 4 -12 1 -19z"/>
<path d="M8220 2985 c7 -8 10 -22 6 -30 -3 -8 -1 -15 4 -15 17 0 11 47 -6 54
-14 5 -15 4 -4 -9z"/>
<path d="M8394 2979 c-3 -6 0 -17 8 -25 13 -13 16 -13 27 0 7 8 10 20 6 26 -8
13 -32 13 -41 -1z"/>
<path d="M8510 2893 c0 -13 5 -23 10 -23 13 0 13 11 0 30 -8 12 -10 11 -10 -7z"/>
<path d="M1464 3188 c-5 -7 -9 -26 -9 -43 0 -23 5 -31 23 -33 16 -3 22 2 22
17 0 11 -8 25 -17 31 -15 9 -13 10 10 5 31 -6 36 9 8 25 -25 13 -27 13 -37 -2z"/>
<path d="M1317 3158 c-18 -10 -23 -38 -7 -38 6 0 10 5 10 10 0 6 9 10 20 10
11 0 20 4 20 9 0 14 -25 20 -43 9z"/>
<path d="M1624 3145 c-3 -8 -4 -20 -1 -27 3 -7 6 -3 6 9 1 12 9 24 19 26 16 4
16 5 -1 6 -10 0 -20 -6 -23 -14z"/>
<path d="M1327 3123 c-15 -14 -7 -43 12 -43 23 0 34 23 18 39 -13 13 -21 14
-30 4z"/>
<path d="M1396 3042 c-3 -6 -1 -14 5 -17 14 -9 20 -2 10 14 -6 8 -11 9 -15 3z"/>
<path d="M640 2421 c0 -5 18 -28 40 -52 22 -24 37 -36 34 -27 -5 16 -1 17 27
12 19 -4 49 -18 67 -31 56 -42 57 -20 1 45 l-54 61 -57 1 c-32 0 -58 -4 -58
-9z"/>
<path d="M8187 288 c-15 -12 -46 -120 -50 -178 l-2 -25 97 0 c53 0 100 3 104
7 12 12 -34 182 -53 196 -9 6 -31 12 -48 12 -17 0 -39 -6 -48 -12z"/>
<path d="M8667 276 c-17 -18 -29 -22 -54 -19 -31 5 -31 5 -38 -49 -4 -30 -5
-65 -3 -79 l3 -24 180 0 180 0 -1 37 c-2 58 -14 68 -130 97 -23 6 -58 22 -78
36 l-37 25 -22 -24z"/>
</g>
</svg>
